<mxfile host="app.diagrams.net" modified="2022-04-22T03:29:48.264Z" agent="5.0 (Windows NT 10.0; Win64; x64) AppleWebKit/537.36 (KHTML, like Gecko) Chrome/99.0.4844.51 Safari/537.36" etag="m34lpm_PhZROWzcBF-b3" version="17.4.6" type="github">
  <diagram id="iuzk0UsQVcLq_jNyBRRj" name="第 1 页">
    <mxGraphModel dx="782" dy="436" grid="1" gridSize="10" guides="1" tooltips="1" connect="1" arrows="1" fold="1" page="1" pageScale="1" pageWidth="827" pageHeight="1169" math="0" shadow="0">
      <root>
        <mxCell id="0" />
        <mxCell id="1" parent="0" />
        <mxCell id="ARuWubajIznbRIlnUUip-1" value="设定插排和快排的阈值 t&amp;nbsp;" style="rounded=1;whiteSpace=wrap;html=1;fillColor=#d5e8d4;strokeColor=#82b366;" vertex="1" parent="1">
          <mxGeometry x="170" y="160" width="180" height="50" as="geometry" />
        </mxCell>
        <mxCell id="ARuWubajIznbRIlnUUip-2" value="选取排序数组区间" style="rounded=1;whiteSpace=wrap;html=1;fillColor=#d5e8d4;strokeColor=#82b366;" vertex="1" parent="1">
          <mxGeometry x="170" y="240" width="180" height="50" as="geometry" />
        </mxCell>
        <mxCell id="ARuWubajIznbRIlnUUip-3" value="l &amp;gt; t" style="rhombus;whiteSpace=wrap;html=1;fillColor=#d5e8d4;strokeColor=#82b366;rounded=1;" vertex="1" parent="1">
          <mxGeometry x="170" y="316" width="180" height="80" as="geometry" />
        </mxCell>
        <mxCell id="ARuWubajIznbRIlnUUip-4" value="查询数组长度 l" style="rounded=1;whiteSpace=wrap;html=1;fillColor=#d5e8d4;strokeColor=#82b366;" vertex="1" parent="1">
          <mxGeometry x="170" y="425" width="180" height="50" as="geometry" />
        </mxCell>
        <mxCell id="ARuWubajIznbRIlnUUip-5" value="插入排序" style="rounded=1;whiteSpace=wrap;html=1;fillColor=#d5e8d4;strokeColor=#82b366;" vertex="1" parent="1">
          <mxGeometry x="380" y="332" width="180" height="50" as="geometry" />
        </mxCell>
      </root>
    </mxGraphModel>
  </diagram>
</mxfile>
